<?xml version="1.0" encoding="utf-8"?>
<!-- Generator: Adobe Illustrator 21.1.0, SVG Export Plug-In . SVG Version: 6.00 Build 0)  -->
<svg version="1.1" id="Layer_1" xmlns="http://www.w3.org/2000/svg" xmlns:xlink="http://www.w3.org/1999/xlink" x="0px" y="0px"
	 viewBox="0 0 24 20" style="enable-background:new 0 0 24 20;" xml:space="preserve">
<style type="text/css">
	.st0{enable-background:new    ;}
	.st1{fill:#00AEEF;}
</style>
<g class="st0">
	<path class="st1" d="M24,3c0,0.5-0.5,1-1,1H1C0.5,4,0,3.5,0,3V1c0-0.5,0.5-1,1-1h22c0.5,0,1,0.5,1,1V3z M24,11c0,0.5-0.5,1-1,1H1
		c-0.5,0-1-0.5-1-1V9c0-0.5,0.5-1,1-1h22c0.5,0,1,0.5,1,1V11z M24,19c0,0.5-0.5,1-1,1H1c-0.5,0-1-0.5-1-1v-2c0-0.5,0.5-1,1-1h22
		c0.5,0,1,0.5,1,1V19z"/>
</g>
</svg>
