<svg xmlns="http://www.w3.org/2000/svg" width="12" height="11.688" viewBox="0 0 12 11.688">
  <metadata><?xpacket begin="﻿" id="W5M0MpCehiHzreSzNTczkc9d"?>
<x:xmpmeta xmlns:x="adobe:ns:meta/" x:xmptk="Adobe XMP Core 5.6-c138 79.159824, 2016/09/14-01:09:01        ">
   <rdf:RDF xmlns:rdf="http://www.w3.org/1999/02/22-rdf-syntax-ns#">
      <rdf:Description rdf:about=""/>
   </rdf:RDF>
</x:xmpmeta>
                                                                                                    
                                                                                                    
                                                                                                    
                                                                                                    
                                                                                                    
                                                                                                    
                                                                                                    
                                                                                                    
                                                                                                    
                                                                                                    
                                                                                                    
                                                                                                    
                                                                                                    
                                                                                                    
                                                                                                    
                                                                                                    
                                                                                                    
                                                                                                    
                                                                                                    
                                                                                                    
                           
<?xpacket end="w"?></metadata>
<defs>
    <style>
      .cls-1 {
        fill: #888;
        fill-rule: evenodd;
      }
    </style>
  </defs>
  <path id="_" data-name="" class="cls-1" d="M175,44.32a6,6,0,0,0-1.9,11.7,0.3,0.3,0,0,0,.414-0.289c0-.148-0.008-0.617-0.008-1.117,0,0-1.672.359-2.024-.711a1.893,1.893,0,0,0-.664-0.875s-0.547-.375.039-0.367a1.258,1.258,0,0,1,.922.617,1.265,1.265,0,0,0,1.742.5,1.322,1.322,0,0,1,.383-0.8c-1.336-.148-2.734-0.664-2.734-2.961a2.323,2.323,0,0,1,.617-1.609,2.17,2.17,0,0,1,.063-1.594,3.174,3.174,0,0,1,1.648.617,5.641,5.641,0,0,1,3,0,3.174,3.174,0,0,1,1.648-.617,2.17,2.17,0,0,1,.063,1.594,2.323,2.323,0,0,1,.617,1.609c0,2.3-1.406,2.813-2.742,2.961a1.414,1.414,0,0,1,.406,1.109c0,0.8-.008,1.453-0.008,1.648a0.3,0.3,0,0,0,.414.289A6,6,0,0,0,175,44.32Zm-3.727,8.617a0.071,0.071,0,0,1-.1.016,0.078,0.078,0,0,1-.055-0.094,0.088,0.088,0,0,1,.1-0.016A0.076,0.076,0,0,1,171.273,52.937Zm0.243,0.266a0.091,0.091,0,0,1-.125-0.023,0.09,0.09,0,0,1-.016-0.125,0.092,0.092,0,0,1,.125.023A0.09,0.09,0,0,1,171.516,53.2Zm0.234,0.352a0.11,0.11,0,0,1-.133-0.055,0.1,0.1,0,0,1,0-.141,0.094,0.094,0,0,1,.133.047A0.108,0.108,0,0,1,171.75,53.554Zm0.328,0.328a0.108,0.108,0,0,1-.156-0.023,0.1,0.1,0,0,1-.031-0.148,0.108,0.108,0,0,1,.156.023A0.117,0.117,0,0,1,172.078,53.883Zm0.445,0.2a0.113,0.113,0,0,1-.148.047,0.109,0.109,0,0,1-.1-0.117,0.125,0.125,0,0,1,.149-0.055A0.119,0.119,0,0,1,172.523,54.078Zm0.493,0.039a0.111,0.111,0,0,1-.125.086,0.1,0.1,0,0,1-.133-0.086,0.111,0.111,0,0,1,.125-0.086A0.108,0.108,0,0,1,173.016,54.117Zm0.453-.078a0.116,0.116,0,0,1-.11.109,0.109,0.109,0,0,1-.14-0.062,0.117,0.117,0,0,1,.109-0.117A0.121,0.121,0,0,1,173.469,54.039Z" transform="translate(-169 -44.313)"/>
</svg>
