<svg xmlns="http://www.w3.org/2000/svg" width="14" height="11" viewBox="0 0 14 11">
  <metadata><?xpacket begin="﻿" id="W5M0MpCehiHzreSzNTczkc9d"?>
<x:xmpmeta xmlns:x="adobe:ns:meta/" x:xmptk="Adobe XMP Core 5.6-c138 79.159824, 2016/09/14-01:09:01        ">
   <rdf:RDF xmlns:rdf="http://www.w3.org/1999/02/22-rdf-syntax-ns#">
      <rdf:Description rdf:about=""/>
   </rdf:RDF>
</x:xmpmeta>
                                                                                                    
                                                                                                    
                                                                                                    
                                                                                                    
                                                                                                    
                                                                                                    
                                                                                                    
                                                                                                    
                                                                                                    
                                                                                                    
                                                                                                    
                                                                                                    
                                                                                                    
                                                                                                    
                                                                                                    
                                                                                                    
                                                                                                    
                                                                                                    
                                                                                                    
                                                                                                    
                           
<?xpacket end="w"?></metadata>
<defs>
    <style>
      .cls-1 {
        fill: #888;
        fill-rule: evenodd;
      }
    </style>
  </defs>
  <path id="_" data-name=" " class="cls-1" d="M68,55.07a0.257,0.257,0,0,1-.25.25H56.25A0.257,0.257,0,0,1,56,55.07v-6a4.213,4.213,0,0,0,.539.516c1.117,0.859,2.242,1.734,3.328,2.641a3.619,3.619,0,0,0,2.125,1.094h0.016a3.619,3.619,0,0,0,2.125-1.094c1.086-.906,2.211-1.781,3.328-2.641A4.207,4.207,0,0,0,68,49.07v6Zm0-8.211a3.044,3.044,0,0,1-1.148,1.93q-1.57,1.23-3.133,2.477a3.851,3.851,0,0,1-1.711,1.055H61.992a3.85,3.85,0,0,1-1.711-1.055q-1.559-1.242-3.133-2.477A2.817,2.817,0,0,1,56,46.57a0.257,0.257,0,0,1,.25-0.25h11.5C68.047,46.32,68,46.664,68,46.859Zm1-.289a1.254,1.254,0,0,0-1.25-1.25H56.25A1.254,1.254,0,0,0,55,46.57v8.5a1.254,1.254,0,0,0,1.25,1.25h11.5A1.254,1.254,0,0,0,69,55.07v-8.5Z" transform="translate(-55 -45.313)"/>
</svg>
