<svg xmlns="http://www.w3.org/2000/svg" width="12" height="12" viewBox="0 0 12 12">
  <metadata><?xpacket begin="﻿" id="W5M0MpCehiHzreSzNTczkc9d"?>
<x:xmpmeta xmlns:x="adobe:ns:meta/" x:xmptk="Adobe XMP Core 5.6-c138 79.159824, 2016/09/14-01:09:01        ">
   <rdf:RDF xmlns:rdf="http://www.w3.org/1999/02/22-rdf-syntax-ns#">
      <rdf:Description rdf:about=""/>
   </rdf:RDF>
</x:xmpmeta>
                                                                                                    
                                                                                                    
                                                                                                    
                                                                                                    
                                                                                                    
                                                                                                    
                                                                                                    
                                                                                                    
                                                                                                    
                                                                                                    
                                                                                                    
                                                                                                    
                                                                                                    
                                                                                                    
                                                                                                    
                                                                                                    
                                                                                                    
                                                                                                    
                                                                                                    
                                                                                                    
                           
<?xpacket end="w"?></metadata>
<defs>
    <style>
      .cls-1 {
        fill: #149c9e;
        fill-rule: evenodd;
      }
    </style>
  </defs>
  <path id="_" data-name=" " class="cls-1" d="M656.078,234.5a0.247,0.247,0,0,1-.25.25h-3.5a0.246,0.246,0,0,1-.25-0.25v-1.25a0.246,0.246,0,0,1,.25-0.25h0.75v-2.5h-0.75a0.246,0.246,0,0,1-.25-0.25V229a0.246,0.246,0,0,1,.25-0.25h2.5a0.247,0.247,0,0,1,.25.25v4h0.75a0.247,0.247,0,0,1,.25.25v1.25Zm-1-7a0.247,0.247,0,0,1-.25.25h-1.5a0.246,0.246,0,0,1-.25-0.25v-1.25a0.246,0.246,0,0,1,.25-0.25h1.5a0.247,0.247,0,0,1,.25.25v1.25Zm5,3.25a6,6,0,1,0-6,6A6,6,0,0,0,660.078,230.746Z" transform="translate(-648.063 -224.75)"/>
</svg>
